<svg width="24" height="24" viewBox="0 0 24 24" fill="none" xmlns="http://www.w3.org/2000/svg">
    <path fill-rule="evenodd" clip-rule="evenodd" d="M9.5 4.97002C9.2073 4.97002 8.97002 5.2073 8.97002 5.5V8.02998H15.5C16.3119 8.02998 16.97 8.68813 16.97 9.5V16.03H19.5C19.7927 16.03 20.03 15.7927 20.03 15.5V5.5C20.03 5.2073 19.7927 4.97002 19.5 4.97002H9.5ZM16.97 16.97H19.5C20.3119 16.97 20.97 16.3119 20.97 15.5V5.5C20.97 4.68813 20.3119 4.02998 19.5 4.02998H9.5C8.68813 4.02998 8.02998 4.68813 8.02998 5.5V8.02998H5.5C4.68813 8.02998 4.02998 8.68813 4.02998 9.5V19.5C4.02998 20.3119 4.68813 20.97 5.5 20.97H15.5C16.3119 20.97 16.97 20.3119 16.97 19.5V16.97ZM16.03 9.5C16.03 9.2073 15.7927 8.97002 15.5 8.97002H5.5C5.2073 8.97002 4.97002 9.2073 4.97002 9.5V19.5C4.97002 19.7927 5.2073 20.03 5.5 20.03H15.5C15.7927 20.03 16.03 19.7927 16.03 19.5V9.5Z" fill="#6B7682"/>
</svg>
