<svg width="276" height="278" viewBox="0 0 276 278" fill="none" xmlns="http://www.w3.org/2000/svg">
    <rect width="276" height="278" fill="white"/>
    <path d="M34 16L34 253" stroke="#BEC9D4" stroke-dasharray="1 2"/>
    <path d="M72 16L72 253" stroke="#BEC9D4" stroke-dasharray="1 2"/>
    <path d="M110 16L110 253" stroke="#BEC9D4" stroke-dasharray="1 2"/>
    <path d="M148 16L148 253" stroke="#BEC9D4" stroke-dasharray="1 2"/>
    <path d="M186 16L186 253" stroke="#BEC9D4" stroke-dasharray="1 2"/>
    <path d="M224 16L224 253" stroke="#BEC9D4" stroke-dasharray="1 2"/>
    <path d="M262 16V253" stroke="#BEC9D4" stroke-dasharray="1 2"/>
    <path fill-rule="evenodd" clip-rule="evenodd" d="M158 28V50L33 50V28L158 28Z" fill="#B280FF"/>
    <path fill-rule="evenodd" clip-rule="evenodd" d="M237 68V90L33 90V68L237 68Z" fill="#68D6E8"/>
    <path fill-rule="evenodd" clip-rule="evenodd" d="M81 108V130H33V108H81Z" fill="#B280FF"/>
    <path fill-rule="evenodd" clip-rule="evenodd" d="M161 148V170H33V148L161 148Z" fill="#B280FF"/>
    <path fill-rule="evenodd" clip-rule="evenodd" d="M123 188V210H33V188H123Z" fill="#B280FF"/>
    <g clip-path="url(#clip0)">
        <path d="M6.99694 160.428C8.25694 160.116 9.21694 159.396 9.67294 158.448C10.1409 159.324 11.0769 159.972 12.3129 160.272L12.7089 159.504C11.1849 159.156 10.1409 158.232 10.1409 157.152V157.128H12.5169V156.348H10.1409V155.148H9.15694V156.348H6.79294V157.128H9.16894V157.152C9.16894 158.304 8.12494 159.288 6.57694 159.648L6.99694 160.428ZM13.1769 160.824C10.8249 161.16 8.12494 161.172 6.07294 161.172L6.20494 162C7.10494 162 8.12494 161.988 9.18094 161.952V165.576H10.1649V161.892C11.1849 161.832 12.2409 161.724 13.2489 161.556L13.1769 160.824ZM13.9449 155.136V165.9H14.9289V155.136H13.9449ZM26.424 160.38C24.54 160.044 22.488 158.46 22.488 156.672V155.844H21.456V156.672C21.456 158.46 19.416 160.044 17.532 160.38L17.94 161.196C19.596 160.848 21.276 159.732 21.972 158.196C22.668 159.732 24.36 160.848 26.004 161.196L26.424 160.38ZM22.464 163.68V161.064H21.48V163.68H17.136V164.484H26.904V163.68H22.464Z" fill="#56606B"/>
        <path d="M14.9289 115.136H13.9449V123.008H14.9289V115.136ZM12.6729 120.692C11.0889 120.164 9.97294 118.856 9.97294 117.404V116.816H12.4089V116.024H6.50494V116.816H8.96494V117.404C8.96494 118.94 7.87294 120.344 6.24094 120.908L6.75694 121.676C8.02894 121.22 9.02494 120.248 9.48094 119.024C9.97294 120.152 10.9569 121.04 12.1929 121.472L12.6729 120.692ZM8.98894 124.844V122.264H8.00494V125.648H15.2529V124.844H8.98894ZM23.904 118.856H25.272V121.94H26.22V115.124H25.272V118.052H23.904V115.34H22.968V121.556H23.904V118.856ZM22.548 116.408H20.304V115.208H19.332V116.408H17.076V117.188H22.548V116.408ZM18.408 119.588C18.408 118.928 18.972 118.484 19.824 118.484C20.664 118.484 21.24 118.928 21.24 119.588C21.24 120.26 20.664 120.704 19.824 120.704C18.972 120.704 18.408 120.26 18.408 119.588ZM22.116 119.588C22.116 118.484 21.18 117.752 19.824 117.752C18.468 117.752 17.52 118.484 17.52 119.588C17.52 120.716 18.468 121.436 19.824 121.436C21.18 121.436 22.116 120.716 22.116 119.588ZM22.68 125.12C21.036 125.12 20.052 124.712 20.052 124.004C20.052 123.284 21.036 122.876 22.68 122.876C24.312 122.876 25.296 123.284 25.296 124.004C25.296 124.712 24.312 125.12 22.68 125.12ZM22.68 122.12C20.436 122.12 19.08 122.792 19.08 124.004C19.08 125.204 20.436 125.876 22.68 125.876C24.924 125.876 26.28 125.204 26.28 124.004C26.28 122.792 24.924 122.12 22.68 122.12Z" fill="#56606B"/>
        <path d="M7.48894 76.996H10.5009V82.36H7.48894V76.996ZM6.52894 83.152H11.4609V76.204H6.52894V83.152ZM16.1529 79.42H14.3769V75.136H13.3929V85.888H14.3769V80.248H16.1529V79.42ZM17.604 75.808V76.612H21.516C21.324 78.436 19.752 79.852 17.124 80.56L17.508 81.34C20.676 80.476 22.572 78.544 22.572 75.808H17.604ZM19.68 82.528H24.516V84.94H19.68V82.528ZM18.708 85.732H25.488V81.736H18.708V85.732ZM27.084 77.752H25.488V75.112H24.504V81.232H25.488V78.568H27.084V77.752Z" fill="#56606B"/>
        <path d="M9.93694 37.044H12.4689V36.228H6.45694V37.044H8.95294V38.412C8.95294 40.272 7.64494 42.3 6.09694 43.032L6.67294 43.824C7.89694 43.2 8.95294 41.844 9.44494 40.272C9.96094 41.748 11.0169 42.984 12.2649 43.56L12.8169 42.768C11.2329 42.096 9.93694 40.236 9.93694 38.412V37.044ZM13.9209 35.136V45.888H14.9049V35.136H13.9209ZM18.24 38.508C18.24 37.44 19.02 36.672 20.076 36.672C21.12 36.672 21.9 37.44 21.9 38.508C21.9 39.576 21.12 40.344 20.076 40.344C19.02 40.344 18.24 39.576 18.24 38.508ZM25.008 37.608V39.396H22.692C22.788 39.12 22.836 38.82 22.836 38.508C22.836 38.184 22.788 37.884 22.692 37.608H25.008ZM25.008 40.188V43.08H26.004V35.136H25.008V36.816H22.272C21.768 36.192 21 35.808 20.076 35.808C18.492 35.808 17.304 36.936 17.304 38.508C17.304 40.08 18.492 41.208 20.076 41.208C21 41.208 21.78 40.824 22.284 40.188H25.008ZM20.112 44.844V42.264H19.116V45.648H26.304V44.844H20.112Z" fill="#56606B"/>
        <path d="M14.7369 198.736H8.34094V195.676H7.34494V199.54H14.7369V198.736ZM15.8649 201.16H6.08494V201.964H10.4529V205.888H11.4369V201.964H15.8649V201.16ZM23.472 199.936C21.84 200.224 20.46 200.296 18.576 200.296V198.748H22.428V195.76H17.58V196.564H21.456V197.992H17.604V201.1H18.456C20.448 201.1 21.864 201.028 23.568 200.74L23.472 199.936ZM18.492 203.032H24.504V205.876H25.488V202.24H18.492V203.032ZM27.084 197.884H25.488V195.136H24.504V201.676H25.488V198.7H27.084V197.884Z" fill="#56606B"/>
    </g>
    <g clip-path="url(#clip1)">
        <path d="M37.828 269.62C37.828 270.404 37.744 271.08 37.576 271.648C37.408 272.216 37.18 272.688 36.892 273.064C36.604 273.44 36.264 273.72 35.872 273.904C35.48 274.08 35.056 274.168 34.6 274.168C34.144 274.168 33.72 274.08 33.328 273.904C32.936 273.72 32.592 273.44 32.296 273.064C32.008 272.688 31.78 272.216 31.612 271.648C31.452 271.08 31.372 270.404 31.372 269.62C31.372 268.836 31.452 268.16 31.612 267.592C31.78 267.016 32.008 266.54 32.296 266.164C32.592 265.788 32.936 265.512 33.328 265.336C33.72 265.152 34.144 265.06 34.6 265.06C35.056 265.06 35.48 265.152 35.872 265.336C36.264 265.512 36.604 265.788 36.892 266.164C37.18 266.54 37.408 267.016 37.576 267.592C37.744 268.16 37.828 268.836 37.828 269.62ZM36.724 269.62C36.724 268.932 36.664 268.356 36.544 267.892C36.432 267.42 36.276 267.044 36.076 266.764C35.884 266.476 35.66 266.272 35.404 266.152C35.148 266.024 34.88 265.96 34.6 265.96C34.32 265.96 34.052 266.024 33.796 266.152C33.54 266.272 33.316 266.476 33.124 266.764C32.932 267.044 32.776 267.42 32.656 267.892C32.544 268.356 32.488 268.932 32.488 269.62C32.488 270.3 32.544 270.876 32.656 271.348C32.776 271.812 32.932 272.188 33.124 272.476C33.316 272.764 33.54 272.972 33.796 273.1C34.052 273.22 34.32 273.28 34.6 273.28C34.88 273.28 35.148 273.22 35.404 273.1C35.66 272.972 35.884 272.764 36.076 272.476C36.276 272.188 36.432 271.812 36.544 271.348C36.664 270.876 36.724 270.3 36.724 269.62Z" fill="#A5B3C2"/>
        <path d="M70.312 273.112V274H65.56V273.112H67.516V267.088C67.516 267 67.516 266.9 67.516 266.788C67.516 266.668 67.52 266.564 67.528 266.476L65.932 267.904L65.344 267.196L67.708 265.156H68.584V273.112H70.312ZM78.0764 269.62C78.0764 270.404 77.9924 271.08 77.8244 271.648C77.6564 272.216 77.4284 272.688 77.1404 273.064C76.8524 273.44 76.5124 273.72 76.1204 273.904C75.7284 274.08 75.3044 274.168 74.8484 274.168C74.3924 274.168 73.9684 274.08 73.5764 273.904C73.1844 273.72 72.8404 273.44 72.5444 273.064C72.2564 272.688 72.0284 272.216 71.8604 271.648C71.7004 271.08 71.6204 270.404 71.6204 269.62C71.6204 268.836 71.7004 268.16 71.8604 267.592C72.0284 267.016 72.2564 266.54 72.5444 266.164C72.8404 265.788 73.1844 265.512 73.5764 265.336C73.9684 265.152 74.3924 265.06 74.8484 265.06C75.3044 265.06 75.7284 265.152 76.1204 265.336C76.5124 265.512 76.8524 265.788 77.1404 266.164C77.4284 266.54 77.6564 267.016 77.8244 267.592C77.9924 268.16 78.0764 268.836 78.0764 269.62ZM76.9724 269.62C76.9724 268.932 76.9124 268.356 76.7924 267.892C76.6804 267.42 76.5244 267.044 76.3244 266.764C76.1324 266.476 75.9084 266.272 75.6524 266.152C75.3964 266.024 75.1284 265.96 74.8484 265.96C74.5684 265.96 74.3004 266.024 74.0444 266.152C73.7884 266.272 73.5644 266.476 73.3724 266.764C73.1804 267.044 73.0244 267.42 72.9044 267.892C72.7924 268.356 72.7364 268.932 72.7364 269.62C72.7364 270.3 72.7924 270.876 72.9044 271.348C73.0244 271.812 73.1804 272.188 73.3724 272.476C73.5644 272.764 73.7884 272.972 74.0444 273.1C74.3004 273.22 74.5684 273.28 74.8484 273.28C75.1284 273.28 75.3964 273.22 75.6524 273.1C75.9084 272.972 76.1324 272.764 76.3244 272.476C76.5244 272.188 76.6804 271.812 76.7924 271.348C76.9124 270.876 76.9724 270.3 76.9724 269.62Z" fill="#A5B3C2"/>
        <path d="M108.54 273.028V274H102.636V273.232L105.672 270.316C105.904 270.068 106.116 269.836 106.308 269.62C106.508 269.396 106.676 269.172 106.812 268.948C106.956 268.724 107.068 268.5 107.148 268.276C107.228 268.044 107.268 267.8 107.268 267.544C107.26 267.28 107.216 267.052 107.136 266.86C107.056 266.668 106.94 266.508 106.788 266.38C106.644 266.252 106.472 266.156 106.272 266.092C106.08 266.028 105.872 265.996 105.648 265.996C105.424 265.996 105.216 266.028 105.024 266.092C104.832 266.156 104.664 266.248 104.52 266.368C104.376 266.488 104.252 266.628 104.148 266.788C104.052 266.94 103.984 267.112 103.944 267.304C103.912 267.464 103.896 267.604 103.896 267.724L102.816 267.544C102.872 267.136 102.984 266.78 103.152 266.476C103.32 266.164 103.528 265.904 103.776 265.696C104.032 265.48 104.324 265.32 104.652 265.216C104.98 265.104 105.332 265.048 105.708 265.048C106.076 265.048 106.424 265.104 106.752 265.216C107.08 265.328 107.364 265.492 107.604 265.708C107.844 265.916 108.032 266.172 108.168 266.476C108.304 266.78 108.372 267.128 108.372 267.52C108.372 267.848 108.32 268.156 108.216 268.444C108.12 268.724 107.988 268.992 107.82 269.248C107.652 269.496 107.456 269.744 107.232 269.992C107.016 270.24 106.784 270.488 106.536 270.736L104.076 273.172C104.244 273.124 104.412 273.088 104.58 273.064C104.756 273.04 104.92 273.028 105.072 273.028H108.54ZM116.076 269.62C116.076 270.404 115.992 271.08 115.824 271.648C115.656 272.216 115.428 272.688 115.14 273.064C114.852 273.44 114.512 273.72 114.12 273.904C113.728 274.08 113.304 274.168 112.848 274.168C112.392 274.168 111.968 274.08 111.576 273.904C111.184 273.72 110.84 273.44 110.544 273.064C110.256 272.688 110.028 272.216 109.86 271.648C109.7 271.08 109.62 270.404 109.62 269.62C109.62 268.836 109.7 268.16 109.86 267.592C110.028 267.016 110.256 266.54 110.544 266.164C110.84 265.788 111.184 265.512 111.576 265.336C111.968 265.152 112.392 265.06 112.848 265.06C113.304 265.06 113.728 265.152 114.12 265.336C114.512 265.512 114.852 265.788 115.14 266.164C115.428 266.54 115.656 267.016 115.824 267.592C115.992 268.16 116.076 268.836 116.076 269.62ZM114.972 269.62C114.972 268.932 114.912 268.356 114.792 267.892C114.68 267.42 114.524 267.044 114.324 266.764C114.132 266.476 113.908 266.272 113.652 266.152C113.396 266.024 113.128 265.96 112.848 265.96C112.568 265.96 112.3 266.024 112.044 266.152C111.788 266.272 111.564 266.476 111.372 266.764C111.18 267.044 111.024 267.42 110.904 267.892C110.792 268.356 110.736 268.932 110.736 269.62C110.736 270.3 110.792 270.876 110.904 271.348C111.024 271.812 111.18 272.188 111.372 272.476C111.564 272.764 111.788 272.972 112.044 273.1C112.3 273.22 112.568 273.28 112.848 273.28C113.128 273.28 113.396 273.22 113.652 273.1C113.908 272.972 114.132 272.764 114.324 272.476C114.524 272.188 114.68 271.812 114.792 271.348C114.912 270.876 114.972 270.3 114.972 269.62Z" fill="#A5B3C2"/>
        <path d="M140.852 267.568C140.908 267.168 141.02 266.812 141.188 266.5C141.356 266.188 141.564 265.928 141.812 265.72C142.068 265.504 142.36 265.34 142.688 265.228C143.016 265.116 143.368 265.06 143.744 265.06C144.128 265.06 144.476 265.116 144.788 265.228C145.108 265.34 145.384 265.496 145.616 265.696C145.848 265.896 146.028 266.136 146.156 266.416C146.284 266.688 146.348 266.996 146.348 267.34C146.348 267.62 146.312 267.872 146.24 268.096C146.168 268.32 146.064 268.516 145.928 268.684C145.792 268.844 145.628 268.984 145.436 269.104C145.244 269.216 145.032 269.312 144.8 269.392C145.376 269.536 145.812 269.792 146.108 270.16C146.404 270.52 146.552 270.972 146.552 271.516C146.552 271.916 146.472 272.28 146.312 272.608C146.16 272.936 145.948 273.216 145.676 273.448C145.404 273.672 145.088 273.848 144.728 273.976C144.376 274.096 143.992 274.156 143.576 274.156C143.104 274.156 142.704 274.096 142.376 273.976C142.048 273.856 141.764 273.692 141.524 273.484C141.292 273.276 141.1 273.032 140.948 272.752C140.804 272.472 140.68 272.168 140.576 271.84L141.56 271.432C141.584 271.568 141.644 271.748 141.74 271.972C141.86 272.22 142.004 272.436 142.172 272.62C142.34 272.804 142.528 272.948 142.736 273.052C142.952 273.156 143.228 273.208 143.564 273.208C143.876 273.208 144.148 273.156 144.38 273.052C144.62 272.948 144.816 272.82 144.968 272.668C145.12 272.508 145.236 272.332 145.316 272.14C145.396 271.94 145.436 271.74 145.436 271.54C145.436 271.3 145.404 271.08 145.34 270.88C145.276 270.68 145.16 270.508 144.992 270.364C144.832 270.22 144.6 270.108 144.296 270.028C144 269.94 143.62 269.896 143.156 269.896V269.104C143.54 269.096 143.864 269.056 144.128 268.984C144.4 268.904 144.62 268.796 144.788 268.66C144.956 268.516 145.076 268.348 145.148 268.156C145.22 267.964 145.256 267.752 145.256 267.52C145.256 267.272 145.216 267.052 145.136 266.86C145.064 266.668 144.956 266.512 144.812 266.392C144.676 266.272 144.508 266.18 144.308 266.116C144.116 266.052 143.908 266.02 143.684 266.02C143.46 266.02 143.252 266.056 143.06 266.128C142.876 266.192 142.708 266.284 142.556 266.404C142.412 266.516 142.292 266.652 142.196 266.812C142.1 266.972 142.032 267.148 141.992 267.34C141.96 267.5 141.944 267.636 141.944 267.748L140.852 267.568ZM154.076 269.62C154.076 270.404 153.992 271.08 153.824 271.648C153.656 272.216 153.428 272.688 153.14 273.064C152.852 273.44 152.512 273.72 152.12 273.904C151.728 274.08 151.304 274.168 150.848 274.168C150.392 274.168 149.968 274.08 149.576 273.904C149.184 273.72 148.84 273.44 148.544 273.064C148.256 272.688 148.028 272.216 147.86 271.648C147.7 271.08 147.62 270.404 147.62 269.62C147.62 268.836 147.7 268.16 147.86 267.592C148.028 267.016 148.256 266.54 148.544 266.164C148.84 265.788 149.184 265.512 149.576 265.336C149.968 265.152 150.392 265.06 150.848 265.06C151.304 265.06 151.728 265.152 152.12 265.336C152.512 265.512 152.852 265.788 153.14 266.164C153.428 266.54 153.656 267.016 153.824 267.592C153.992 268.16 154.076 268.836 154.076 269.62ZM152.972 269.62C152.972 268.932 152.912 268.356 152.792 267.892C152.68 267.42 152.524 267.044 152.324 266.764C152.132 266.476 151.908 266.272 151.652 266.152C151.396 266.024 151.128 265.96 150.848 265.96C150.568 265.96 150.3 266.024 150.044 266.152C149.788 266.272 149.564 266.476 149.372 266.764C149.18 267.044 149.024 267.42 148.904 267.892C148.792 268.356 148.736 268.932 148.736 269.62C148.736 270.3 148.792 270.876 148.904 271.348C149.024 271.812 149.18 272.188 149.372 272.476C149.564 272.764 149.788 272.972 150.044 273.1C150.3 273.22 150.568 273.28 150.848 273.28C151.128 273.28 151.396 273.22 151.652 273.1C151.908 272.972 152.132 272.764 152.324 272.476C152.524 272.188 152.68 271.812 152.792 271.348C152.912 270.876 152.972 270.3 152.972 269.62Z" fill="#A5B3C2"/>
        <path d="M182.656 270.796V267.124C182.656 267.02 182.66 266.904 182.668 266.776C182.676 266.64 182.688 266.508 182.704 266.38L179.464 270.796H182.656ZM184.96 270.796V271.66H183.628V274H182.656V271.66H178.264V270.844L182.596 265.108H183.628V270.796H184.96ZM192.076 269.62C192.076 270.404 191.992 271.08 191.824 271.648C191.656 272.216 191.428 272.688 191.14 273.064C190.852 273.44 190.512 273.72 190.12 273.904C189.728 274.08 189.304 274.168 188.848 274.168C188.392 274.168 187.968 274.08 187.576 273.904C187.184 273.72 186.84 273.44 186.544 273.064C186.256 272.688 186.028 272.216 185.86 271.648C185.7 271.08 185.62 270.404 185.62 269.62C185.62 268.836 185.7 268.16 185.86 267.592C186.028 267.016 186.256 266.54 186.544 266.164C186.84 265.788 187.184 265.512 187.576 265.336C187.968 265.152 188.392 265.06 188.848 265.06C189.304 265.06 189.728 265.152 190.12 265.336C190.512 265.512 190.852 265.788 191.14 266.164C191.428 266.54 191.656 267.016 191.824 267.592C191.992 268.16 192.076 268.836 192.076 269.62ZM190.972 269.62C190.972 268.932 190.912 268.356 190.792 267.892C190.68 267.42 190.524 267.044 190.324 266.764C190.132 266.476 189.908 266.272 189.652 266.152C189.396 266.024 189.128 265.96 188.848 265.96C188.568 265.96 188.3 266.024 188.044 266.152C187.788 266.272 187.564 266.476 187.372 266.764C187.18 267.044 187.024 267.42 186.904 267.892C186.792 268.356 186.736 268.932 186.736 269.62C186.736 270.3 186.792 270.876 186.904 271.348C187.024 271.812 187.18 272.188 187.372 272.476C187.564 272.764 187.788 272.972 188.044 273.1C188.3 273.22 188.568 273.28 188.848 273.28C189.128 273.28 189.396 273.22 189.652 273.1C189.908 272.972 190.132 272.764 190.324 272.476C190.524 272.188 190.68 271.812 190.792 271.348C190.912 270.876 190.972 270.3 190.972 269.62Z" fill="#A5B3C2"/>
        <path d="M218.292 268.48C218.748 268.376 219.168 268.324 219.552 268.324C220.024 268.324 220.436 268.392 220.788 268.528C221.14 268.664 221.436 268.856 221.676 269.104C221.916 269.344 222.096 269.624 222.216 269.944C222.344 270.264 222.408 270.62 222.408 271.012C222.408 271.484 222.324 271.908 222.156 272.284C221.988 272.66 221.76 272.988 221.472 273.268C221.192 273.54 220.856 273.748 220.464 273.892C220.072 274.036 219.656 274.108 219.216 274.108C218.952 274.108 218.7 274.08 218.46 274.024C218.22 273.976 217.996 273.908 217.788 273.82C217.58 273.732 217.384 273.632 217.2 273.52C217.024 273.408 216.868 273.288 216.732 273.16L217.32 272.356C217.432 272.452 217.54 272.532 217.644 272.596C217.756 272.66 217.884 272.732 218.028 272.812C218.18 272.892 218.352 272.964 218.544 273.028C218.744 273.092 218.984 273.124 219.264 273.124C219.568 273.124 219.848 273.076 220.104 272.98C220.36 272.876 220.58 272.744 220.764 272.584C220.948 272.416 221.092 272.2 221.196 271.936C221.3 271.672 221.352 271.384 221.352 271.072C221.352 270.792 221.304 270.54 221.208 270.316C221.112 270.084 220.98 269.892 220.812 269.74C220.652 269.588 220.448 269.468 220.2 269.38C219.952 269.292 219.668 269.248 219.348 269.248C219.116 269.248 218.88 269.276 218.64 269.332C218.408 269.38 218.164 269.448 217.908 269.536L217.2 269.332L217.92 265.168H222.132V266.176H218.688L218.292 268.48ZM230.076 269.62C230.076 270.404 229.992 271.08 229.824 271.648C229.656 272.216 229.428 272.688 229.14 273.064C228.852 273.44 228.512 273.72 228.12 273.904C227.728 274.08 227.304 274.168 226.848 274.168C226.392 274.168 225.968 274.08 225.576 273.904C225.184 273.72 224.84 273.44 224.544 273.064C224.256 272.688 224.028 272.216 223.86 271.648C223.7 271.08 223.62 270.404 223.62 269.62C223.62 268.836 223.7 268.16 223.86 267.592C224.028 267.016 224.256 266.54 224.544 266.164C224.84 265.788 225.184 265.512 225.576 265.336C225.968 265.152 226.392 265.06 226.848 265.06C227.304 265.06 227.728 265.152 228.12 265.336C228.512 265.512 228.852 265.788 229.14 266.164C229.428 266.54 229.656 267.016 229.824 267.592C229.992 268.16 230.076 268.836 230.076 269.62ZM228.972 269.62C228.972 268.932 228.912 268.356 228.792 267.892C228.68 267.42 228.524 267.044 228.324 266.764C228.132 266.476 227.908 266.272 227.652 266.152C227.396 266.024 227.128 265.96 226.848 265.96C226.568 265.96 226.3 266.024 226.044 266.152C225.788 266.272 225.564 266.476 225.372 266.764C225.18 267.044 225.024 267.42 224.904 267.892C224.792 268.356 224.736 268.932 224.736 269.62C224.736 270.3 224.792 270.876 224.904 271.348C225.024 271.812 225.18 272.188 225.372 272.476C225.564 272.764 225.788 272.972 226.044 273.1C226.3 273.22 226.568 273.28 226.848 273.28C227.128 273.28 227.396 273.22 227.652 273.1C227.908 272.972 228.132 272.764 228.324 272.476C228.524 272.188 228.68 271.812 228.792 271.348C228.912 270.876 228.972 270.3 228.972 269.62Z" fill="#A5B3C2"/>
        <path d="M257.552 273.232C257.84 273.232 258.104 273.184 258.344 273.088C258.592 272.992 258.8 272.86 258.968 272.692C259.144 272.516 259.28 272.316 259.376 272.092C259.472 271.86 259.52 271.608 259.52 271.336C259.52 271.048 259.472 270.788 259.376 270.556C259.288 270.324 259.156 270.124 258.98 269.956C258.812 269.788 258.612 269.664 258.38 269.584C258.148 269.496 257.896 269.452 257.624 269.452C257.328 269.452 257.06 269.504 256.82 269.608C256.588 269.704 256.384 269.84 256.208 270.016C256.04 270.184 255.912 270.384 255.824 270.616C255.736 270.84 255.692 271.072 255.692 271.312C255.692 271.6 255.732 271.86 255.812 272.092C255.9 272.324 256.024 272.528 256.184 272.704C256.344 272.872 256.536 273.004 256.76 273.1C256.992 273.188 257.256 273.232 257.552 273.232ZM256.892 268.48C256.684 268.768 256.544 268.96 256.472 269.056C256.688 268.912 256.92 268.8 257.168 268.72C257.416 268.64 257.688 268.6 257.984 268.6C258.344 268.6 258.684 268.66 259.004 268.78C259.324 268.892 259.604 269.064 259.844 269.296C260.084 269.52 260.272 269.8 260.408 270.136C260.552 270.464 260.624 270.836 260.624 271.252C260.624 271.668 260.548 272.052 260.396 272.404C260.252 272.748 260.044 273.052 259.772 273.316C259.508 273.58 259.184 273.788 258.8 273.94C258.424 274.084 258.016 274.156 257.576 274.156C257.12 274.156 256.712 274.084 256.352 273.94C255.992 273.796 255.684 273.592 255.428 273.328C255.172 273.064 254.972 272.748 254.828 272.38C254.692 272.004 254.624 271.588 254.624 271.132C254.624 270.74 254.708 270.324 254.876 269.884C255.052 269.436 255.332 268.96 255.716 268.456L258.164 265.156H258.548H259.544L256.892 268.48ZM268.076 269.62C268.076 270.404 267.992 271.08 267.824 271.648C267.656 272.216 267.428 272.688 267.14 273.064C266.852 273.44 266.512 273.72 266.12 273.904C265.728 274.08 265.304 274.168 264.848 274.168C264.392 274.168 263.968 274.08 263.576 273.904C263.184 273.72 262.84 273.44 262.544 273.064C262.256 272.688 262.028 272.216 261.86 271.648C261.7 271.08 261.62 270.404 261.62 269.62C261.62 268.836 261.7 268.16 261.86 267.592C262.028 267.016 262.256 266.54 262.544 266.164C262.84 265.788 263.184 265.512 263.576 265.336C263.968 265.152 264.392 265.06 264.848 265.06C265.304 265.06 265.728 265.152 266.12 265.336C266.512 265.512 266.852 265.788 267.14 266.164C267.428 266.54 267.656 267.016 267.824 267.592C267.992 268.16 268.076 268.836 268.076 269.62ZM266.972 269.62C266.972 268.932 266.912 268.356 266.792 267.892C266.68 267.42 266.524 267.044 266.324 266.764C266.132 266.476 265.908 266.272 265.652 266.152C265.396 266.024 265.128 265.96 264.848 265.96C264.568 265.96 264.3 266.024 264.044 266.152C263.788 266.272 263.564 266.476 263.372 266.764C263.18 267.044 263.024 267.42 262.904 267.892C262.792 268.356 262.736 268.932 262.736 269.62C262.736 270.3 262.792 270.876 262.904 271.348C263.024 271.812 263.18 272.188 263.372 272.476C263.564 272.764 263.788 272.972 264.044 273.1C264.3 273.22 264.568 273.28 264.848 273.28C265.128 273.28 265.396 273.22 265.652 273.1C265.908 272.972 266.132 272.764 266.324 272.476C266.524 272.188 266.68 271.812 266.792 271.348C266.912 270.876 266.972 270.3 266.972 269.62Z" fill="#A5B3C2"/>
    </g>
    <defs>
        <clipPath id="clip0">
            <rect width="21" height="177" fill="white" transform="translate(6 30)"/>
        </clipPath>
        <clipPath id="clip1">
            <rect width="237" height="19" fill="white" transform="translate(31 259)"/>
        </clipPath>
    </defs>
</svg>
